<svg xmlns="http://www.w3.org/2000/svg" viewBox="0 0 3452.6 2332.55"><defs><style>.cls-1{fill:#333;}.cls-2{fill:#edebe1;fill-rule:evenodd;}</style></defs><title>livingflames</title><g id="Layer_3" data-name="Layer 3"><path class="cls-1" d="M2302.18,3302.64c-10.59,12.25-36.41,11.58-50.64,15.23-17.55,4.3-26.48,9.26-43.7,3-18.53-6.62-23.5-14.89-18.2-33.1,9.6-33.76,24.16-69.5,36.74-101.28,5.63-14.56,9.27-30.12,16.22-44.35,8.94-17.88,19.53-31.78,17.87-52.63-13.24,0-46,8.6-55.27-5-12.58-18.53,16.88-17.87,27.8-17.87,13.24-.33,41-6,52.3,2,17.87,12.58,14.89,39.72,8.6,56.93-12.24,33.1-30.45,64.21-41.37,98-3.64,10.93-6.29,22.18-9.93,33.1-2,6.62-11.26,23.83-9.6,30.45,4.63,17.54,32.11-2,42.7-3.31C2286,3282.78,2315.75,3287.41,2302.18,3302.64ZM2237,3198.38c0,.33,1.33,1,1.66,1.65v.33a5.73,5.73,0,0,0,.33,3.31s.33.33.33,0c.33-.66-.33-2-.33-2.65a3.5,3.5,0,0,0,1.65.34c1,0,1-.34.66-1-1-1.32,1-1.32,1-2.32.33-1,.33-2.31,1-3,.33-1,1.66-1.66,1-3a.32.32,0,0,1,.33-.33,13.47,13.47,0,0,0,3-3.31c.67-1.33,2.32-2.65,1.66-4,0-.33-.33-.66-.66-1h.33c0-.66,1-1,1.32-1.65a7.88,7.88,0,0,0,.66-2.65,4.94,4.94,0,0,1,.33-2.32,5.35,5.35,0,0,1,2.32-2.32c1.33-1.32,1.66-3,2.32-4.3,1-2,2-3.64,1.65-6,0-.33-1.32-.66-2-1,.33,0,.66,0,.33-.33a7.82,7.82,0,0,0,.66-2.65c.33-.33-.66-2,.33-2V3158l1-.67c1-.66,2.32-1.65,2.65-2.64s1-2.32,0-3.65a1.71,1.71,0,0,0-1.32-.66c-1-1.32,2-2.31,3-2.65,1.32-1.32,2-3,.33-5-.33-.66-2.32-1.32-2.65-1-1,.66-.33,2-.66,3l-1,2c-.67.66-1.66,2-.34,3h-1c-1,1-.33,3-1.32,4.3-.66,1.33-3,2.32-3.64,3.64-.67,1,.33,2.32.33,3.31a.32.32,0,0,0,.33.33l-.33.34c-1.33,2.31-5.3,3.64-4.64,7a7,7,0,0,0,2.32,1c1.66-1,1.66-2.32,3-3.31l1.32-1a14,14,0,0,1-1.32,3.31c-1,2-1.66,4-4,5a3.78,3.78,0,0,0-2,4.3v2c-.33-.33-1.65-1-1.65-.66-1,.66-.33,1.65.33,3a3.22,3.22,0,0,1,.33,3,14.55,14.55,0,0,1-1.66-.33c-.66.33-.33,1-.33,1.32.33.66.66,2,0,2.65h.33a11.42,11.42,0,0,0-1.65,2.65,2.5,2.5,0,0,0-1-.34c-1.33.67-1.33,1.66-2,2.32a10.55,10.55,0,0,0-1,3c0,.66,0,1-.67,1.32C2237.3,3197.71,2237,3198,2237,3198.38Zm.33,9.6c0,.33,1,.66,1,.33a6.51,6.51,0,0,0,.33-2.65c0-.33-1.33-.66-1.33-.66A9,9,0,0,0,2237.3,3208Zm9.6-28.14v.66C2246.57,3180.5,2246.57,3180.17,2246.9,3179.84Zm0,.66v.33l.33.34C2246.9,3181.17,2246.9,3180.83,2246.9,3180.5Zm15.23-24.82a1.16,1.16,0,0,0-.67-.33l-1,3.64c0,.33.66.33.66.33Zm-1.33-14.23c0,.33,1,.66,1,.33.33-.33,1-.67,1.32-1.33a4.92,4.92,0,0,0,.33,2.32,7,7,0,0,0,2.32,1c1-1,1.32-2,2-2.65l2-3.31c1.32-2,2.32-3.64,2.32-6a8.35,8.35,0,0,0-.66-2.32c.33-.33.66-.66.66-1,1.65-2,3-4.31,5.62-5.63,1-.66,2-1,1.33-2.32a6.24,6.24,0,0,0-3.64-1.65c0-.33.33-.33.33-.66A2.6,2.6,0,0,0,2277,3117c1-1,.66-3,.66-4.63,0-.33-1.32-1-1.32-.66a6.24,6.24,0,0,0-2.65,3.31l-1.32,1.65c-.33.66,0,1.33.33,2.32-2.32.33-3.64,2-4.64,3a4.8,4.8,0,0,0-2,3c-.33,1,.33,2.31,1.32,4l-.33.33c-1.65,1.65-3.64,3.31-4.3,5.29a7.6,7.6,0,0,0-1,3.65A9.46,9.46,0,0,0,2260.8,3141.45Zm5.63,4s-1.32-.66-1.32-.33c-.67.33-1,1-1.33,1.32-.33,1,0,2-1,2.65-1.33.66-2.32,1.32-.33,3,.33.33,1.32.66,1,.33-.66-1-.66-1.66.33-2s1.66-.33,2.32-1c.33-.33.33-.66.33-1.32C2266.1,3147.07,2266.43,3146.41,2266.43,3145.42ZM2276,3111c.33,0,.33.34.66.34a.33.33,0,0,0-.33-.34C2276,3110.66,2276,3111,2276,3111Z" transform="translate(-924.74 -996.22)"/><path class="cls-1" d="M2447.15,3308.93c1,24.82-35.74,24.49-48.65,9.27-4.64-5.3,3-32.44,4-42.37a288.14,288.14,0,0,0-1-53.29c-17.22,6.29-34.76,20.19-53,21.84-35.42,3-30.12-21.84-23.83-45,1-3,1.32-8.61,2.64-13.9,3.64-12.25,5.3-25.16,7.29-38.07,4-24.49,8.93-51,5-75.79,10.26-6,27.14-13.24,36.41-.34,6,8.61.33,27.48.33,37.41,0,28.13.33,71.16-12.91,95.65,8.94,1.66,26.81-3.31,34.09-8.6,3-2.65,5.3-.33,7.95-3.64,3.31-4,2-18.21,2.31-24.17,1.66-23.5,4-49.64,1.33-73.14-1.66-11.26-9.93-19.53,2.32-25.82,8.93-4.64,30.12,1,34.42,7.28,12.25,16.55,2.32,55.94,1.32,74.47-1.32,26.48-4,53-5.29,79.44a386,386,0,0,0,.66,43.69C2443.51,3285.76,2446.49,3298,2447.15,3308.93Zm-20.85-77.45c0-.34-1.65-.34-2.32,0v-.34c.33,0,.33-.33,0-.33v-2.64c-.33-.67-1.32-1.66-.66-2.32,0-.33.33-.66.66-1a6.91,6.91,0,0,0,1.33-3.65,3.62,3.62,0,0,0-1.33-3.3h-1.32c-1.33-1,1-3,1.65-3.65,1-1.65,1-3.31-1.32-4.63a4.61,4.61,0,0,0-3,0c-.33,1,.66,2,.66,3,0,.66-.33,1.65-.33,2.32a2.08,2.08,0,0,0,1,3c-.33,0-1,0-1,.33-.66,1.32.66,3,.33,4.3-.33,1.65-2,3.31-2.31,5,0,1,1,2,1.65,3h.33v.33c-.66,2.65-4,5.63-2,8.28a3.64,3.64,0,0,0,2.64,0c1.33-1.33.67-2.65,1.33-4l1-1.66v4c-.33,1.66-.33,4-1.65,6a4.08,4.08,0,0,0-.67,4.64,6.52,6.52,0,0,1,1.33,2.64.32.32,0,0,0,.33.33c-.66-.33-1-.66-1-1.32,0-.33-1.66-.33-1.66,0-.66,1,.33,1.65,1.32,2.65A2.72,2.72,0,0,1,2423,3255c-.66.33-1.32.33-1.66.66-.66.33-.33.66,0,1,.67.66,1.33,1.66,1,2.32l.33.33a10.26,10.26,0,0,0-.66,2.65,2.62,2.62,0,0,1-1,.33c-1,1-.66,2-1,3a4.7,4.7,0,0,0,.33,3c0,.66,0,1-.66,1.32a1.21,1.21,0,0,0-.33,1c0,.67,1.32.67,2.32,1v.33c0,1,1,2,1.32,3h.66c-.33-1-1.32-1.66-1.32-2.65a1.5,1.5,0,0,0,1.65,0,.69.69,0,0,0,0-1.33c-1.32-.66.33-1.65.33-2.31a5.75,5.75,0,0,1-.33-3.31c0-1,1-2,0-3h-.33a.32.32,0,0,1,.33-.33,12.94,12.94,0,0,0,1.66-4.64c.33-1,1.32-3,0-4.3-.33,0-.33-.33-.66-.66,0-.66.66-1.33.66-2a7.35,7.35,0,0,0-.33-2.65,6.12,6.12,0,0,1-.66-2.31c0-1,1-2,1.32-3,1-1.33.66-3.31.66-5A12.16,12.16,0,0,0,2426.3,3231.48Zm4.3-48.33c-1-.66-3-.66-4.3-.66a.32.32,0,0,1,.33-.33,4.73,4.73,0,0,0,.66-2c.33-1.32-.66-3-1-4.3-.33-.33-1.65-.66-1.65-.33a6.32,6.32,0,0,0-1.33,4c0,1-.33,1.66-.33,2.32-.33.66.33,1.32.66,1.65-2,1.33-2.32,3.31-3,4.64a4.08,4.08,0,0,0-.66,3.31c0,1.32,1.32,2.31,2.32,3.31v.33A28.13,28.13,0,0,0,2420,3202c0,1,.33,2.31.33,3.31.33,1.32,0,2.31.66,3.64h1l1-2.32a3.77,3.77,0,0,0,1,2.65c.33.33,2.32.33,2.32,0,.66-1,.66-2.32,1-3.31a11.63,11.63,0,0,1,.67-3.64,10.22,10.22,0,0,0,0-6.29,7.36,7.36,0,0,0-1.33-2,2.49,2.49,0,0,1,.33-1.32,22.57,22.57,0,0,1,3-7.28C2430.6,3184.81,2431.6,3183.81,2430.6,3183.15Zm-6.95,93.67c-.33-.33-1.65-.33-1.65,0a6.35,6.35,0,0,0,1,2.65c0,.33,1,.33,1,0h.33A10.26,10.26,0,0,0,2423.65,3276.82Zm1-101.61h.33c-.33,0-.33-.33-.67-.33Zm4,38.06a8.88,8.88,0,0,1-1-2.65H2426a4.25,4.25,0,0,0-.33,2c-.33,1,.66,1.65,0,2.65-1,1.32-1.66,2,.66,3,.33.33,1.32,0,1,0-1-.67-1.32-1.33-.33-2,.66-.66,1.33-1,1.66-1.66A1,1,0,0,0,2428.62,3213.27Zm-.66,12.25a16.26,16.26,0,0,1-.67-4s-.66,0-.66.33a14.92,14.92,0,0,0,.33,3.64Z" transform="translate(-924.74 -996.22)"/><path class="cls-1" d="M2575.25,3251.33c-5,.67-6.95,2.32-11.92,3.32-10.92,1.65-22.17,2.31-32.76,4.63-8.61,1.65-18.21-.33-26.81,1.32-7,1-14.57,2.65-21.85.67-8.61-2.65-13.24-13.91-11.58-22.51,1.32-6,5.29-4,10.26-4.3,18.86-.34,37.4-3,56.6-1.33a188,188,0,0,1,30.45,4.3c3,.67,20.19,4.64,20.52,7.29C2588.82,3249.68,2578.56,3251,2575.25,3251.33Zm-38.73-12.24c-15.22,3-30.78-3-46,.66,6.62-1,14.89.66,21.51.66C2520,3240.74,2528.25,3241.07,2536.52,3239.09Z" transform="translate(-924.74 -996.22)"/><path class="cls-1" d="M2695.73,3104.71c-6.62,11.25-10.26,24.82-14.9,37.07-12.9,34.42-18.86,68.84-26.14,104.26-2.65,12.58-8.94,25.16-10.27,38.06-1,10.6,6.29,25.82-.33,33.43-6,7-24.16,5-31.44,1.66-14.56-6.62-15.56-15.56-13.24-28.14,11.25-65.2,34.42-127.43,51-191-14.89,0-33.1,2.32-45.34-8.6-12.58-11.59-11.26-20.2,5.29-22.51,16.22-2,30.45,6.95,46.67,5.29,7.95-.66,22.84-5,29.46-3.31,5.3,1.33,15.56,8.61,17.21,13.91C2708,3096.43,2701,3096.1,2695.73,3104.71Zm-58.26,151.59a3.32,3.32,0,0,0-1-.33l-1.32,1.65c.33-.66,0-1.32-.33-2.31,0-.33-2-1-2.32-.66-1,1-1,2-1.66,3l-1.65,3.31c-1,2-2,4-1.66,6.29a2.89,2.89,0,0,0,1,2l-1,1c-1.32,2.32-2.31,4.64-5,6.62-.66.66-1.66,1.33-1,2.32a7.08,7.08,0,0,0,4,1.32c0,.33,0,.33-.33.66s-1,1-1,1.33c-.66,1.32-.33,3.31,0,4.63,0,.33,1.33,1,1.66.66a8,8,0,0,0,2-3.64c0-.66.66-1.32,1-2a2.2,2.2,0,0,0-.33-2c2-.66,3-2.65,4-3.64a13.43,13.43,0,0,0,1.65-3c.34-1.32-.66-2.65-1.65-4l.33-.33c1.32-2,3-3.64,3.64-6a9.77,9.77,0,0,0,.66-3.31C2637.14,3258.62,2637.81,3257.62,2637.47,3256.3Zm-11.91,31.78h-.33c.33,0,.33.33.66.33Zm6-37.74c.33,1,0,1.66.33,2.65,0,0,1.32.66,1.32.33a4.4,4.4,0,0,0,1-1.65c.34-1,0-2,1-2.65,1.32-1,2-1.33,0-3.31-.33,0-1.33-.33-1,0,.67,1,.67,1.65-.33,2l-2,1A3,3,0,0,0,2631.52,3250.34Zm25.81-52c.34-.34-1-1-1.65-1.66l.33-.33a14.6,14.6,0,0,0-.66-3.31H2655c0,1,.33,2,.33,2.65-.33,0-1.33-.33-1.66-.33-.66.33-1,.66-.33,1.32,1,1-1,1-1,2-.33,1-.33,2.31-1,3.31-.34.66-1.66,1.65-.67,2.65v.33h-.33c-1.65,1-2.31,2.64-3,3.64-.66,1.32-2,2.65-1.32,4.3l.66.66c-.33,0-.33,0-.33.33,0,.66-1,1-1.32,1.66a3.48,3.48,0,0,0-.33,2.65,5.46,5.46,0,0,1-.34,2.31c-.33,1-1.32,1.66-2,2.32-1.32,1.32-1.66,3-2.32,4.63a15.65,15.65,0,0,0-1.32,5.63c.33.66,1.65,1,2.32,1-.34,0-.67.34-.34.34a6.22,6.22,0,0,1-.66,2.64c0,.66,1,2,0,2.32h.33l-1,1c-1.32,1-2.32,1.66-2.65,3a3.17,3.17,0,0,0,.66,3.64,1.49,1.49,0,0,0,1,.33c1,1.33-1.66,2.32-2.65,3-1.32,1.33-1.66,3,0,5,.33.33,2.65,1,3,.66.66-.66,0-2,.33-3a2.89,2.89,0,0,1,1-2c.33-1,1-2-.33-3.31.33.34,1,.34,1,0,1.33-1,.34-3,1-4.3s2.64-2.32,3.64-4c.33-1-.66-2.32-1-3.31v-.33c1.33-2.65,5.3-4.3,4.31-7.28a2.74,2.74,0,0,0-2.65-.67c-1.32.67-1.32,2-2.32,3l-1.65,1.33a12,12,0,0,0,1.32-3.64c1-1.66,1.33-3.64,3.64-5a3.94,3.94,0,0,0,1.66-4.3,9.2,9.2,0,0,0-.33-3v-.66c.33.66.66,1.32.33,1.65,0,.33,1.32.67,1.65.67,1-.67,0-2-.66-3a6,6,0,0,1-.66-3.31,4.19,4.19,0,0,0,2,.33c.67,0,.34-.66,0-1.33,0-.66-.66-1.65,0-2.31l-.33-.33,1.66-2.32h1c1-.66,1-1.66,1.66-2.32a10.44,10.44,0,0,0,1-3c0-.66,0-1,.66-1.32A.71.71,0,0,0,2657.33,3198.38Zm-22.17,44s.66.33.66,0a11.93,11.93,0,0,0,.66-3.64s-.66-.33-.66,0Zm20.52-51.31c0,.34,1.32,1,1.65.67,0-1-.33-2-.33-3,0-.33-1-.66-1-.33C2655.35,3189.11,2655.68,3190.1,2655.68,3191.09Z" transform="translate(-924.74 -996.22)"/><path class="cls-2" d="M2317.29,996.22c382.53,91.61,741.56,903.54,403.19,1192.37,180.47-46.87,284.61-238.85,233.63-415.54,435.77,382.5,262.52,1247.28-270.11,1447.64,119.26-102.09,157.61-277.6,111.32-450.69-27.71-103.58-94.14-193.35-165.69-271.77-87.13-95.49-268.54-262.5-140.2-397.22-204,48.86-395.5,481.89-215,635.94-96.25-25-151.79-127.39-124.6-221.63-200.42,175.92-159.28,543.12,38,709.42-403.23-127.36-556.25-554.58-444-974.18,52-194.21,176.5-362.52,310.66-509.54,163.38-179,503.51-492.2,262.87-744.8Z" transform="translate(-924.74 -996.22)"/><path class="cls-1" d="M1235.17,2624.75c-42.48,21.6-91.44,23-136.08,38.88-20.88,7.2-41,17.28-60.48,28.08-11.52,5.76-20.88,10.08-28.8,20.88-1.44,2.16-15.84,18-15.12,15.84a130.4,130.4,0,0,1-15.12,13c3.6-1.44,14.4-8.64,15.12-7.2,1.44,9.36-20.88,16.56-28.08,18-15.84,2.16-35.28-2.16-40.32-19.44-7.2-23.76,12.24-50.4,27.36-65.52,7.2-7.2,15.12-13,24.48-16.56,10.8-5,24.48-5,28.8-16.56,0,.72.72-16.56,4.32-18.72.72,0-2.88,15.12-2.88,15.12,2.16-5.76,2.88-11.52,5-18a1.35,1.35,0,0,1-2.16,0c-3.6-9.36,7.92-35.28,10.08-44.64,3.6-13.68,7.92-26.64,10.8-40.32,6.48-24.48,10.08-47.52,13-72.72,2.88-27.36,10.8-54,18-79.92,1.44-3.6,13.68-49.68,17.28-49.68.72,0-2.16,10.08-1.44,10.8,4.32-14.4,7.92-28.8,12.24-42.48-.72.72-5.76,11.52-5.76,10.08-1.44-7.92,6.48-20.88,9.36-28.8l10.08-30.24c7.2-20.16,15.12-40.32,27.36-59,15.84-23,38.16-41.76,67-43.2,20.16-1.44,41,5.76,57.6,15.12,30.24,16.56,41.76,38.88,43.92,69.84,2.16,38.16-23.76,92.16-54,115.2-11.52,8.64-27.36,15.84-41.76,14.4-9.36-.72-20.88-5.76-15.12-16.56a5.38,5.38,0,0,0,2.16-2.16h-.72c0-.72,25.2-53.28,28.08-52.56.72,0-8.64,23-8.64,24.48a484.42,484.42,0,0,0,27.36-69.84c3.6-12.24,14.4-41.76,5.76-54.72-9.36-13.68-30.24,2.16-38.88,10.08-20.16,20.16-32.4,49-43.2,74.88,12.24-28.08,31-74.16,62.64-85.68,29.52-10.8,17.28,30.24,14.4,40.32,2.16-7.92,7.92-37.44-3.6-41-13.68-3.6-29.52,15.84-36,24.48-29.52,38.16-46.08,88.56-61.2,133.92-31,93.6-49,190.8-85,282.24,47.52-14.4,97.2-26.64,146.88-29.52a378.08,378.08,0,0,1,49.68,1.44C1274.77,2599.55,1246,2619.71,1235.17,2624.75Zm-255.6,116.64a.71.71,0,0,0-.72.72Zm95.76-383c5.76-18.72,12.24-36,19.44-53.28,22.32-49,42.48-128.16,100.08-142.56-23,5-40.32,18-55.44,38.88-18.72,25.2-31.68,52.56-41.76,82.08C1089.73,2308.67,1081.81,2333.15,1075.33,2358.35Zm60.48-19.44c-5.76,17.28-11.52,33.84-16.56,51.12l16.56-49.68Z" transform="translate(-924.74 -996.22)"/><path class="cls-1" d="M1438.21,2553.47c-12.24,18-23.76,35.28-37.44,52.56-14.4,19.44-32.4,50.4-57.6,56.16-5.76.72-33.12-6.48-32.4-10.8h1.44c-5.76-2.88,0,3.6-8.64-2.88-6.48-4.32-10.8-10.8-15.12-17.28-7.92-10.8-18-20.16-20.88-33.12-.72-3.6-2.16-29.52,3.6-29.52,1.44,0,0,3.6.72,3.6l2.16-13c-.72,1.44-.72,2.16-2.16,2.88-2.88-.72,10.8-51.84,12.24-56.16,5.76-15.12,8.64-32.4,23-41,10.8-7.2,24.48-5.76,38.16,0,5.76,2.16,22.32,9.36,22.32,16.56,0,4.32-3.6,5-5.76,7.2.72-.72,2.16-.72,2.88-.72,2.16,1.44-8.64,16.56-10.08,15.84-1.44,0,.72-3.6,1.44-5.76a371.8,371.8,0,0,0-33.84,72.72c3.6-9.36,21.6-49.68,23.76-49s-47.52,87.12-23,99.36c11.52,5.76,31-12.24,38.88-18.72,13.68-10.8,32.4-24.48,42.48-36.72-1.44,1.44-2.88,1.44-5,1.44-2.88-3.6,33.12-51.12,39.6-55.44,5-3.6,15.12-6.48,16.56,2.88C1458.37,2528.27,1445.41,2544.11,1438.21,2553.47Zm-122.4,41-1.44,5.76,1.44-4.32v-.72C1316.53,2593.79,1316.53,2593.79,1315.81,2594.51Zm9.36-177.84c-.72-2.16-2.88-24.48,5-20.88,0-2.16,8.64-13,4.32-3.6a167.44,167.44,0,0,0,17.28-29.52l-8.64,13c6.48-13,16.56-39.6,17.28-44.64,0-.72-1.44-7.2,0-8.64-15.12-5.76-4.32-14.4,2.16-19.44-1.44,0-2.16,0-2.88-1.44-2.88-2.88,5.76-5,7.92-5.76,10.08-4.32,23-2.16,32.4,2.88,7.92,5,15.12,15.84,18,24.48,2.88,9.36-4.32,20.16-10.8,25.92-2.88,2.88-7.92,5-11.52,7.92-4.32,5-3.6,11.52-7.2,16.56-2.16,3.6-6.48,5-8.64,8.64-2.88,2.16-2.88,4.32-.72,6.48a25.86,25.86,0,0,0-7.2,5c-7.2,11.52-11.52,18-20.16,24.48,7.92-5,13-9.36,20.16-18.72a50.54,50.54,0,0,1,20.88-15.84c-7.2,7.92-8.64,17.28-17.28,23-8.64,5-.72-5-10.08,3.6,0,0,4.32-.72,2.16.72-6.48,5.76-13,15.12-21.6,18.72-4.32,1.44-7.2,4.32-12.24,2.16-5-2.88-2.88-5.76-4.32-7.92C1329.49,2423.87,1325.17,2417.39,1325.17,2416.67Zm5.76-20.88a.71.71,0,0,1,.72.72c.72-.72.72-.72.72-1.44C1331.65,2395.79,1331.65,2395.79,1330.93,2395.79Zm11.52-18.72a17.82,17.82,0,0,1-2.88,4.32Z" transform="translate(-924.74 -996.22)"/><path class="cls-1" d="M1747.8,2532.59a172.82,172.82,0,0,1-27.36,28.8c-5,5-8.64,11.52-13.68,16.56-31,35.28-121.68,59.76-119.52-12.24-23.76,33.12-54,59-75.6,94.32-12.24,19.44-20.16,35.28-24.48,57.6-.72,8.64-2.16,17.28-6.48,24.48-10.8,16.56-30.24,13.68-43.92,3.6-19.44-14.4-18-45.36-16.56-68.4,0-8.64,5-17.28,5.76-24.48,0,0-1.44-13-.72-11.52-.72-2.16-2.16-4.32-2.16-11.52,0-7.92,1.44-14.4,0-22.32-.72-9.36-2.88-15.12-.72-25.2,0-1.44,3.6-10.08,3.6-10.08,0,.72,0,2.16.72,2.16a32.29,32.29,0,0,0-.72-7.92l-.72.72c2.16-3.6-10.8-44.64-8.64-53.28,2.88-10.8,10.08-12.24,17.28-16.56,2.88-2.16,8.64-7.92,15.12-10.08,7.92-2.88,19.44-3.6,25.2,4.32,4.32,5,.72,6.48,2.88,10.8-.72-2.16,2.88-2.88,3.6-.72s1.44,12.24.72,11.52l-2.16-5c3.6,12.24,5,25.2,6.48,37.44v.72l1.44,21.6c0-1.44-.72-10.8-.72-19.44,2.88,29.52,8.64,82.8,7.92,90,7.92-11.52,15.84-23,24.48-33.84,3.6-5.76,8.64-10.08,13-14.4,4.32-5,4.32-10.08,7.2-14.4,7.2-13,20.16-22.32,29.52-33.12l23.76-24.48c15.12-17.28,28.8-38.16,50.4-51.12,13.68-9.36,46.08-8.64,43.2,14.4-1.44,5.76-4.32,8.64-8.64,12.24-13,11.52-29.52,17.28-41.76,30.24l-13,13.68-4.32,2.88c-1.44,4.32,1.44,3.6.72,5-3.6,10.08-16.56,32.4-4.32,38.88,5.76,2.88,20.16,2.16,25.92.72,10.08-1.44,19.44-11.52,29.52-15.84,10.08-5,18-11.52,26.64-18.72,2.88-2.16,54.72-67,57.6-31C1755.72,2524.67,1750.68,2529,1747.8,2532.59Zm-269.28-14.4c-.72-4.32-1.44-9.36-3.6-13-.72-.72-7.2-10.08-7.2-7.92,0,2.88,4.32,7.2,5,10.08,2.16,5,2.88,10.8,3.6,16.56a192.6,192.6,0,0,1,.72,35.28c-.72,14.4,1.44,30.24.72,43.92,2.16-16.56,2.88-33.84,3.6-51.12C1482.12,2540.51,1480.68,2529,1478.52,2518.19Zm-2.16,93.6c-.72,2.16,0,2.88.72,2.88C1477.8,2612.51,1477.8,2611.79,1476.36,2611.79Zm9.36-83.52v10.8C1485.72,2532.59,1485,2528.27,1485.72,2528.27Zm0,16.56v1.44c0,.72,0,.72.72,1.44C1486.44,2547,1485.72,2546.27,1485.72,2544.83Zm2.16,41v10.8A27.27,27.27,0,0,0,1487.88,2585.87Z" transform="translate(-924.74 -996.22)"/><path class="cls-1" d="M1873.08,2553.47c-12.24,18-23.76,35.28-37.44,52.56-14.4,19.44-32.4,50.4-57.6,56.16-5.76.72-33.12-6.48-32.4-10.8h1.44c-5.76-2.88,0,3.6-8.64-2.88-6.48-4.32-10.8-10.8-15.12-17.28-7.92-10.8-18-20.16-20.88-33.12-.72-3.6-2.16-29.52,3.6-29.52,1.44,0,0,3.6.72,3.6l2.16-13c-.72,1.44-.72,2.16-2.16,2.88-2.88-.72,10.8-51.84,12.24-56.16,5.76-15.12,8.64-32.4,23-41,10.8-7.2,24.48-5.76,38.16,0,5.76,2.16,22.32,9.36,22.32,16.56,0,4.32-3.6,5-5.76,7.2.72-.72,2.16-.72,2.88-.72,2.16,1.44-8.64,16.56-10.08,15.84-1.44,0,.72-3.6,1.44-5.76a371.8,371.8,0,0,0-33.84,72.72c3.6-9.36,21.6-49.68,23.76-49s-47.52,87.12-23,99.36c11.52,5.76,31-12.24,38.88-18.72,13.68-10.8,32.4-24.48,42.48-36.72-1.44,1.44-2.88,1.44-5,1.44-2.88-3.6,33.12-51.12,39.6-55.44,5-3.6,15.12-6.48,16.56,2.88C1893.24,2528.27,1880.28,2544.11,1873.08,2553.47Zm-122.4,41-1.44,5.76,1.44-4.32v-.72C1751.4,2593.79,1751.4,2593.79,1750.68,2594.51Zm9.36-177.84c-.72-2.16-2.88-24.48,5-20.88,0-2.16,8.64-13,4.32-3.6a167.44,167.44,0,0,0,17.28-29.52l-8.64,13c6.48-13,16.56-39.6,17.28-44.64,0-.72-1.44-7.2,0-8.64-15.12-5.76-4.32-14.4,2.16-19.44-1.44,0-2.16,0-2.88-1.44-2.88-2.88,5.76-5,7.92-5.76,10.08-4.32,23-2.16,32.4,2.88,7.92,5,15.12,15.84,18,24.48,2.88,9.36-4.32,20.16-10.8,25.92-2.88,2.88-7.92,5-11.52,7.92-4.32,5-3.6,11.52-7.2,16.56-2.16,3.6-6.48,5-8.64,8.64-2.88,2.16-2.88,4.32-.72,6.48a25.86,25.86,0,0,0-7.2,5c-7.2,11.52-11.52,18-20.16,24.48,7.92-5,13-9.36,20.16-18.72a50.54,50.54,0,0,1,20.88-15.84c-7.2,7.92-8.64,17.28-17.28,23-8.64,5-.72-5-10.08,3.6,0,0,4.32-.72,2.16.72-6.48,5.76-13,15.12-21.6,18.72-4.32,1.44-7.2,4.32-12.24,2.16-5-2.88-2.88-5.76-4.32-7.92C1764.36,2423.87,1760,2417.39,1760,2416.67Zm5.76-20.88a.71.71,0,0,1,.72.72c.72-.72.72-.72.72-1.44C1766.52,2395.79,1766.52,2395.79,1765.8,2395.79Zm11.52-18.72a17.82,17.82,0,0,1-2.88,4.32Z" transform="translate(-924.74 -996.22)"/><path class="cls-1" d="M2102.75,2573.63c-15.83,20.16-30.24,41.76-47.52,60.48-13,13.68-34.56,36.72-54.72,30.24-4.32-1.44-31-15.84-30.24-19.44l2.16,1.44-4.32-4.32c3.6,5.76-4.32-1.44-5-1.44-3.6-3.6-6.48-9.36-8.64-13.68-3.6-7.92-4.32-15.84-4.32-23.76s1.44-15.84,2.16-23.76c1.44-16.56,2.16-31,7.2-46.8,1.44-3.6,16.56-43.92,21.6-42.48,1.44,0-2.16,5-1.44,5.76l10.08-20.16c-1.44,1.44-2.16,2.88-3.6,3.6-.72-.72,8.64-17.28,10.8-20.88-14.4,16.56-25.92,33.84-38.88,51.12-9.36,12.24-20.88,20.16-27.36,31.68-15.12,25.92-33.84,49.68-46.08,76.32l-2.88-5.76c-13,15.84-32.4-2.88-39.6-15.12-6.48-11.52-4.32-20.16-2.88-33.12,1.44-11.52.72-23,4.32-35.28,4.32-15.12,10.08-29.52,15.84-44.64,5-15.12,10.08-30.24,15.84-45.36,3.6-9.36,10.8-20.88,13-31,2.16-7.92,0-13,9.36-18.72,8.64-5,18-4.32,27.36-2.88,11.52,2.16,32.4,14.4,20.16,32.4-5,6.48-13.68,13.68-19.44,20.88-6.48,7.92-5.76,11.52-8.64,20.88-1.44,5.76-7.2,10.8-10.08,16.56-4.32,7.92-7.2,18-10.08,27.36-1.44,5.76-.72,10.08-1.44,15.84-1.44,15.12-6.48,30.24-7.92,45.36.72-2.88,5.76-7.92,6.48-7.2s-7.2,13-6.48,13l42.48-61.92c-9.36,12.24-16.56,20.88-16.56,20.88-2.16-1.44,83.52-110.88,93.6-120.24,20.89-19.44,47.52-18.72,57.6,15.12,11.52,36-25.92,59.76-43.2,85.68-9.36,14.4-17.28,31.68-24.48,46.8-5,9.36-15.84,30.24-17.28,46.08,1.44-10.8,9.36-23.76,12.24-31,5.76-15.12,13.68-27.36,25.2-38.16-5,9.36-10.8,18-15.12,26.64l3.6-4.32c1.44,0-6.48,24.48-7.2,25.92-2.88,8.64-5.76,18-6.48,27.36-.72.72,0,12.24,0,12.24l.72.72c0-.72,5-1.44,6.48-2.16,10.8-3.6,21.6-13.68,30.24-20.88,17.28-13.68,33.84-28.8,50.4-43.2,12.25-11.52,28.08-23,38.17-35.28,4.31-6.48,14.39-18,18-.72C2138.75,2537.63,2111.4,2562.11,2102.75,2573.63Z" transform="translate(-924.74 -996.22)"/><path class="cls-1" d="M2431.79,2545.55l-58.32,44.64c-21.6,17.28-42.48,33.84-62.64,51.84-10.08,7.92-20.88,15.84-29.52,24.48-8.64,9.36-10.8,21.6-14.4,33.84-24.48,82.8-46.08,169.2-89.28,244.08-13.68,24.48-25.2,50.4-56.16,58.32-36,8.64-65.52-20.16-78.48-51.12-14.4-35.28,0-67.68,20.88-97.92,18-25.92,37.44-51.84,58.32-75.6,14.4-16.56,30.24-31,46.08-45.36,15.12-14.4,35.28-28.8,49-45.36,13-16.56,16.56-47.52,23-68.4l15.84-56.16c-15.12,27.36-35.28,52.56-53.28,77-16.56,23-33.12,50.4-56.88,64.8-10.8,6.48-20.88,9.36-31.68,4.32-5-2.16-32.4-26.64-29.52-31.68.72.72,1.44,1.44,2.16,1.44l-2.16-5c1.44,7.2-7.2-9.36-7.92-10.8-2.88-9.36-3.6-19.44-3.6-29.52,0-15.12.72-31.68,3.6-46.8,2.16-13.68,7.92-26.64,15.12-38.16.72-2.16,15.12-25.92,18-24.48.72,0-2.88,5-2.16,5.76l12.24-18c-.72.72-2.16,2.16-3.6,2.16-5-2.88,64.08-77,71.28-83.52,11.52-11.52,23.76-21.6,38.16-28.8,7.92-4.32,13-2.88,19.44-4.32,5.76-.72,7.92-3.6,13-5,17.28-4.32,43.2,1.44,54,15.84,7.92,8.64,12.24,37.44-5.76,38.16-4.32,0-6.48-2.88-10.08-5l2.16,2.16s-19.44-.72-28.08.72l9.36-3.6c-43.2,7.2-79.92,59.76-103,92.88,6.48-7.92,45.36-56.16,58.32-67-13,12.24-52.56,62.64-55.44,67-19.44,28.08-37.44,59-48.24,91.44-3.6,10.08-18.72,70.56,7.2,50.4,18.72-13.68,39.6-38.16,54-57.6-.72.72-1.44,1.44-2.16,1.44-2.16,0,11.52-20.16,13.68-23l19.44-29.52c13.68-19.44,26.64-40.32,40.32-59.76,5.76-7.92,15.12-23.76,23.76-27.36,29.52-13,66.24,13,48.24,43.2-19.44,33.84-39.6,69.84-51.12,105.84,3.6,2.16,43.2-34.56,49.68-39.6,15.84-13,31.68-25.92,48.24-37.44,12.24-9.36,25.2-17.28,37.44-26.64,6.48-5.76,27.36-26.64,30.24-5.76C2453.39,2532.59,2441.15,2538.35,2431.79,2545.55ZM2205.71,2732c-32.4,30.24-60.48,61.92-87.84,97.2-22.32,29.52-61.2,75.6-49.68,115.92,17.28,63.36,64.8-23,74.88-43.92,20.16-41.76,34.56-85.68,49.68-129.6-.72,1.44,2.88-8.64,2.88-7.92C2199.23,2753.63,2202.83,2742.83,2205.71,2732Zm-35.28-206.64c-2.16,3.6-5.76,7.2-7.92,9.36-10.8,11.52-16.56,23-22.32,36,5.76-7.92,12.24-15.12,16.56-23Zm-5.76,26.64a217.76,217.76,0,0,0-15.12,23.76l6.48-9.36ZM2192.75,2812c-10.8,28.8-24.48,55.44-37.44,83.52,6.48-11.52,15.12-22.32,21.6-34.56a357.82,357.82,0,0,0,15.84-46.8Z" transform="translate(-924.74 -996.22)"/><path class="cls-1" d="M3043.06,2198.51c-9.36,2.88-7.92,4.32-15.12,10.08-7.92,6.48-24.48,10.08-33.84,12.24-38.16,10.08-73.44,20.16-111.6,23-8.64.72-20.88,1.44-29.52,3.6-9.36,2.88-7.2,1.44-10.8,12.24l-5.76,15.84c-6.48,20.88-12.24,42.48-18.72,64.08-6.48,20.88-13.68,43.2-23.76,61.92-2.88,4.32-11.52,32.4-13,32.4v-2.16l-2.16,5.76c3.6-6.48.72,8.64.72,9.36,24.48-2.16,48.24-4.32,72.72-5.76,23-2.16,46.08,1.44,69.12,0,1.44,0,12.24-8.64,9.36,5-2.88,13-28.8,11.52-38.16,13.68-8.64,2.16-13,7.2-25.2,9.36-11.52,2.88-22.32,4.32-33.84,7.2-8.64,2.16-19.44.72-28.08,4.32-5.76,2.88-12.24,6.48-21.6,7.2-10.08.72-17.28,0-22.32,9.36-5,10.08-4.32,25.2-7.92,36-1.44,3.6-18,53.28-22.32,52.56-1.44,0,1.44-5,.72-5.76-2.88,6.48-5,13.68-7.2,19.44l2.88-2.88c.72.72-26.64,85.68-28.8,92.88-8.64,25.92-12.24,57.6-29.52,77-4.32,5,3.6,4.32-7.2,7.92-11.52,3.6-31.68-7.92-41-14.4-10.8-7.2-19.44-18-21.6-31-1.44-12.24,4.32-15.12,7.92-23.76l-2.88,2.88c-2.16,0,8.64-30.24,11.52-30.24,0,.72-.72,2.16-.72,3.6l23-58.32c-5.76,14.4-10.8,24.48-10.8,23.76.72,0,49.68-126.72,54-138.24-16.56.72-52.56-15.12-33.84-35.28,4.32-4.32,10.8-5,15.84-5.76l21.6-3.6c14.4-3.6,14.4-5,18.72-18.72,5.76-17.28,11.52-33.84,18.72-51.12,12.24-28.8,29.52-58.32,39.6-85.68l-4.32,5.76c-1.44,0,7.2-25.92,7.92-28.8,4.32-10.8,7.2-20.88,10.8-31-22.32,1.44-81.36,0-69.12-38.16,5-14.4,19.44-13.68,32.4-14.4,10.08-.72,19.44-.72,29.52-2.16,5.76,0,14.4,0,20.16-2.16,7.92-2.16,7.92-.72,10.8-10.08,2.88-8.64,4.32-19.44,9.36-27.36,16.56-27.36,54,8.64,53.28,31,42.48-7.2,87.84-6.48,131-12.24,21.6-2.88,43.92-5.76,66.24-10.08,4.32-.72,24.48-2.16,27.36-5C3099.94,2171.15,3048.1,2197.07,3043.06,2198.51Zm-367.92,331.92,9.36-22.32C2682.34,2508.83,2678,2521.79,2675.14,2530.43Zm70.56-28.8v-.72c-20.16,54-43.2,107.28-61.2,161.28,8.64-23.76,21.6-46.8,31-70.56,10.8-29.52,20.88-59.76,30.24-89.28C2745,2503.79,2745,2504.51,2745.7,2501.63Zm0-.72c0-.72,0-.72.72-1.44v-.72A2.65,2.65,0,0,0,2745.7,2500.91Zm1.44-3.6v-.72a2.65,2.65,0,0,0-.72,2.16A2.51,2.51,0,0,1,2747.14,2497.31Z" transform="translate(-924.74 -996.22)"/><path class="cls-1" d="M3216.58,2529c-4.32,15.84-13.68,30.24-22.32,44.64-21.6,34.56-40.32,71.28-64.08,105.84-25.92,37.44-54,75.6-87.12,108-28.08,26.64-67,47.52-100.81,16.56-30.24-28.08-30.24-78.48-28.08-116.64,2.88-40.32,13.69-79.2,23-118.08.73-1.44,0-18.72,3.61-23.76-.73,1.44-.73,6.48-1.44,10.8a122.38,122.38,0,0,1,5-15.12h-2.17c-2.16-14.4,7.92-36.72,12.25-50.4,5-16.56,10.79-33.84,16.55-50.4,10.81-31,22.33-61.2,32.41-92.16,9.36-31,23.75-60.48,38.16-89.28q9.72-20.52,21.59-41c2.17-3.6,18-34.56,21.61-33.84l-5.76,12.24,23-39.6-.72.72c3.6-5.76,8.64-16.56,12.24-20.88l16.56-22.32c10.08-12.24,22.32-29.52,38.88-34.56,31.68-10.08,57.6,23,61.92,51.12l.72.72v3.6c4.32,43.92-21.6,95.76-41,133.2-11.52,23-23.76,51.12-41.76,69.84-12.24,13.68-18.72,28.08-28.8,44.64-27.36,43.92-56.89,87.84-89.28,128.16-7.92,10.08-13,16.56-16.57,29.52-4.31,13.68-7.92,27.36-11.51,41.76-4.32,14.4-7.92,28.8-11.53,43.2-1.43,6.48-7.92,26.64-7.19,28.08a171.06,171.06,0,0,0-4.32,26.64l5.76-21.6c3.6,5.76-2.17,27.36-2.88,33.84a257,257,0,0,0-2.16,33.84c0,13.68,0,44.64,18,47.52,24.48,2.88,50.4-33.84,62.64-49,29.52-35.28,54-74.88,78.48-113.76,13-20.16,25.2-40.32,37.44-61.2,7.92-13,14.4-31,24.48-41.76C3218,2490.83,3219.46,2517.47,3216.58,2529Zm-265,41c-2.88,0-6.49,15.12-8.64,31.68V2601c-5,25.2-7.93,51.84-9.36,77.76l2.16-23v2.16c0-5,1.43-9.36,2.16-14.4,4.31-21.6,5-49,13.68-69.12a5.63,5.63,0,0,1,.71-2.16C2953.05,2571.47,2953.05,2569.31,2951.62,2570Zm91.44-123.12c53.27-85.68,113.76-175.68,146.16-272.16-12.24,34.56-30.24,67.68-46.8,99.36-10.08,18-19.44,36-30.24,54-6.48,10.8-19.44,27.36-23.76,38.88,5.76-18.72,23-40.32,33.12-57.6l30.24-56.16c17.28-34.56,43.2-77,44.64-117.36v-.72c1.44-38.16-31,5-36,13-20.16,32.4-34.56,67.68-49,102.24C3084.82,2314.43,3063.94,2383.55,3043.06,2446.91Zm23.76-201.6c-.72.72-.72,2.16-.72,2.88,15.84-28.8,34.56-56.16,49.68-86.4-7.2,13-20.16,24.48-27.36,38.16C3080.5,2215.07,3073.29,2229.47,3066.82,2245.31Z" transform="translate(-924.74 -996.22)"/><path class="cls-1" d="M3514.65,2565c-9.36,21.6-20.16,41-31.68,60.48-13.68,21.6-27.36,42.48-43.2,61.2-13,16.56-31,37.44-52.56,41-24.48,4.32-43.92-15.84-51.84-37.44-17.28-42.48-5-87.12,7.92-128.16a98,98,0,0,1,.72-11.52c-7.2,10.8-17.28,23.76-23.76,33.84-8.64,13.68-15.12,27.36-24.48,40.32-4.32,6.48-63.36,77.76-71.28,65.52,0,0,8.64-3.6,7.92-5-8.64,5.76-20.16,7.2-30.24,4.32,2.16,1.44,3.6,2.16,2.88,2.16-16.56,2.16-29.52-23.76-33.12-35.28-5.76-20.16-4.32-42.48-.72-62.64,7.92-41.76,25.2-87.12,49.68-123.12,6.48-8.64,13-18.72,22.32-25.2,5.76-5,10.8-5.76,17.28-10.08,10.8-9.36,20.16-17.28,36-17.28,35.28,0,49.68,40.32,56.88,67.68,17.28-22.32,48.24-51.84,74.88-19.44,14.4,17.28,5,30.24-2.88,46.08-13.68,25.2-24.48,56.16-30.24,82.08.72-2.16,2.88-13,5.76-13.68,5.76-1.44-46.08,161.28,28.08,69.84,22.32-28.08,41.76-57.6,61.2-87.12,8.64-13.68,17.28-28.08,26.64-41.76,4.32-5.76,17.28-19.44,18-3.6C3536.25,2534.75,3520.41,2551.31,3514.65,2565Zm-182.88-53.28c0-5.76-14.4-45.36-10.8-48.24.72-.72,7.2,20.16,7.92,21.6-2.16-8.64-5-35.28-18-35.28-23.76,0-41.76,43.92-49.68,60.48-14.4,32.4-27.36,67-33.12,102.24,2.16-10.8,43.92-141.12,56.88-140.4-10.08,2.16-48.24,113-50.4,123.12-1.44,5.76-13,43.2-2.16,46.8,7.2,2.16,24.48-20.16,28.08-25.2Q3281,2592,3299.37,2565l18.72-26.64c2.88-5,6.48-10.08,10.08-15.12C3331.77,2517.47,3331.77,2517.47,3331.77,2511.71Zm2.16-5v7.2C3336.09,2511.71,3336.09,2509.55,3333.93,2506.67Zm17.28,34.56-3.6,5c-.72,2.16-2.88,12.24-2.88,12.24Z" transform="translate(-924.74 -996.22)"/><path class="cls-1" d="M3895.52,2575.07c-18,25.92-36,52.56-56.16,77-13.68,18-38.88,51.84-64.08,52.56-5,.72-35.28-9.36-33.84-15.12l.72.72c-1.44-.72-1.44-2.16-2.16-3.6,0,1.44-10.08-8.64-11.52-12.24-4.32-7.92-6.48-17.28-7.92-25.92-2.16-14.4-2.16-28.08-2.16-41.76a126.57,126.57,0,0,1,7.2-43.2c.72-2.88,13.68-43.2,18-42.48.72,0-2.16,5.76-.72,6.48,2.16-7.2,5-14.4,7.92-22.32a15.06,15.06,0,0,1-2.88,4.32c-.72-.72,19.44-49.68,23-57.6-23.76,22.32-36,53.28-59.76,76.32-15.12,15.12-26.64,43.92-38.88,64.08-10.08,17.28-19.44,43.2-42.48,20.88-6.48-5.76-10.08-13.68-11.52-22.32-.72-9.36,2.88-18.72,5-27.36,2.16-7.92,0-10.8.72-19.44,2.88-25.92,19.44-51.12,28.8-75.6,2.16-7.92,25.2-51.84,13.68-52.56-1.44-.72-12.24,14.4-14.4,16.56a338.51,338.51,0,0,0-24.48,31.68c-23.76,36.72-38.88,73.44-59,111.6-7.92,15.12-14.4,30.24-21.6,44.64-2.88,7.2-7.92,13.68-10.08,20.88,0,2.16-.72,7.92-1.44,9.36-7.2,13-35.28-5.76-42.48-14.4-15.12-18-9.36-34.56-10.08-54.72-1.44-26.64,8.64-52.56,17.28-77.76a258.2,258.2,0,0,1,14.4-36.72c3.6-6.48,9.36-12.24,12.24-19.44,2.16-3.6-.72-7.2,5.76-10.08,5-2.16,12.24,2.16,16.56,5.76,5.76,5,9.36,14.4,13,18.72,3.6,5,10.8,8.64,7.92,18.72,0,1.44-1.44,2.88-2.16,4.32-4.32,7.2-10.8,13.68-15.84,20.88-2.16,2.88-5.76,7.2-6.48,10.8-1.44,5,0,7.2-1.44,12.24-2.16,10.08-7.92,18.72-10.08,28.8-1.44,6.48-4.32,14.4-4.32,20.88,0,7.2,2.88,13,1.44,20.88,10.8-17.28,15.84-38.88,25.92-57.6,11.52-23,23-47.52,36.72-69.84,11.52-18,25.2-35.28,36.72-54,9.36-15.12,25.2-36.72,43.92-38.88,25.92-3.6,46.08,28.08,40.32,51.12-5,18-15.84,36-22.32,53.28-8.64,25.2-15.84,51.12-23,76.32,8.64-18,19.44-35.28,31-53.28l-14.4,19.44c-.72-5,59-82.8,66.24-90,19.44-18.72,60.48-38.88,71.28.72,9.36,34.56-8.64,74.88-20.88,105.84-11.52,27.36-28.08,59.76-33.84,87.12a15.06,15.06,0,0,1,2.88-4.32s-5,34.56,1.44,36c13.68,2.88,41.76-36,49.68-44.64,19.44-21.6,38.16-44.64,56.88-67,3.6-4.32,35.28-47.52,40.32-31.68.72,1.44,0,.72,0,.72C3924.32,2537.63,3904.88,2561.39,3895.52,2575.07Zm-233.28-104.4v.72c4.32-10.8,17.28-44.64,13-54.72,2.88,11.52-14.4,56.16-17.28,61.92-7.2,16.56-15.84,33.12-21.6,50.4-5,14.4-10.08,33.84-10.08,50.4,1.44-15.84,8.64-33.12,14.4-47.52,7.2-19.44,11.52-40.32,20.16-58.32a10.36,10.36,0,0,1,1.44-2.16h-.72Z" transform="translate(-924.74 -996.22)"/><path class="cls-1" d="M4140.31,2527.55,4118,2557.07l-38.88,50.4c-10.08,13-22.32,25.2-32.4,38.16-10.8,14.4-20.16,29.52-32.4,43.2-13,13.68-28.08,28.08-45.36,37.44-12.24,6.48-23.76,7.2-36.72,3.6-18.72-5-35.28-16.56-47.52-31-3.6-4.32-7.2-7.92-7.92-13.68a88.63,88.63,0,0,1-1.44-14.4c-.72-8.64,2.16-15.12,3.6-23.76,1.44-9.36,5.76-18,7.2-27.36,1.44-10.08,4.32-19.44,5.76-28.8.72-8.64-.72-18,1.44-26.64,1.44-5.76,5.76-11.52,7.92-18-2.16,4.32-5.76,8.64-6.48,12.24-2.16,5.76-3.6,11.52-5.76,16.56-2.16,5.76-2.88,10.8-5,16.56-2.88,6.48-5.76,12.24-6.48,19.44-.72,6.48,0,13-.72,19.44-1.44,6.48-2.88,11.52-2.88,18,0,2.16,1.44,6.48,1.44,7.92,0,2.88-1.44,6.48-1.44,10.08,0,6.48,1.44,13,2.16,20.16-11.52-20.16-9.36-40.32-5.76-61.92s6.48-42.48,11.52-63.36c9.36-42.48,28.8-84.24,56.16-118.08,22.32-29.52,51.84-51.84,90.72-44.64,14.4,2.88,30.24,9.36,39.6,21.6,10.08,13.68,9.36,31,4.32,46.8-9.36,28.08-33.12,50.4-55.44,69.12-9.36,7.92-19.44,15.84-30.24,22.32-7.2,4.32-15.12,7.2-23,10.08l-12.24,4.32c-5,1.44-5.76.72-7.92,5-3.6,7.2-1.44,14.4-2.88,21.6-1.44,9.36-3.6,18-5.76,27.36-3.6,17.28-9.36,39.6-5,57.6,7.92,36.72,68.4-20.16,79.2-30.24,7.2-6.48,13.68-13.68,20.16-20.16,3.6-4.32,7.92-7.92,10.8-12.24,0,0,1.44-3.6,1.44-5,8.64-13.68,20.16-26.64,31-39.6,13-15.12,24.48-31,36.72-47.52,6.48-9.36,21.6-36,33.12-16.56v.72c.72.72.72.72.72,0C4146.07,2519.63,4143.91,2523.23,4140.31,2527.55Zm-185,17.28a208.12,208.12,0,0,0,60.48-48.24l12.24-15.84c2.16-3.6,5.76-5.76,7.2-10.08.72-3.6-.72-6.48,0-10.8l2.88-15.12c.72-7.2-2.16-25.92-13-23.76-5,1.44-10.08,7.92-13,11.52l-13,17.28c-15.12,22.32-23,46.8-33.84,69.84a5.57,5.57,0,0,1-.72,2.16C3961,2529,3958.87,2536.91,3955.27,2544.83Z" transform="translate(-924.74 -996.22)"/><path class="cls-1" d="M4377.18,2523.23c2.88,23-33.12,41.76-48.24,52.56-20.88,15.12-41.76,29.52-64.8,41.76-5.76,2.88-14.4,5.76-20.16,10.08-7.92,6.48-6.48,5.76-5,17.28a238.19,238.19,0,0,1,3.6,39.6c.72,20.16-1.44,40.32-8.64,59.76-17.28,44.64-51.84,73.44-101.52,72-43.92-.72-90.72-23.76-81.36-71.28-.72,1.44-2.88,13.68-3.6,13-5-2.88,0-18.72,1.44-22.32,8.64-26.64,31.68-47.52,53.28-64.08,12.24-9.36,24.48-18.72,36.72-26.64,9.36-5.76,31-14.4,32.4-24.48,2.16-10.08-7.2-31.68-10.08-42.48-2.88-13.68-7.92-28.08-9.36-42.48-.72-9.36,2.16-15.12,0-23.76-3.6-11.52-7.2-22.32-7.92-34.56s-.72-24.48,3.6-36c5.76-17.28,43.92-56.88,63.36-38.88,0-3.6,9.36,10.08,10.08,14.4,0,2.88-2.88,29.52-7.2,28.8,0,0,1.44-6.48,2.16-11.52-3.6,10.08-9.36,19.44-10.08,30.24-1.44,9.36.72,20.16,2.16,28.8,0-1.44,0-2.88,1.44-3.6-.72,0,7.2,37.44,13.68,67.68-5-19.44-11.52-42.48-14.4-56.16,5.76,31.68,13,62.64,20.16,93.6.72-.72,1.44-2.16.72-5.76.72,2.16,1.44,3.6,1.44,4.32,31.68-15.84,61.2-31,90.72-49.68,13-8.64,26.64-23,40.32-29.52,7.2-2.88,13-1.44,15.12,8.64ZM4118,2769.47l20.16-7.92c.72.72-5.76,5-5.76,5.76a82,82,0,0,0,22.32-19.44l-3.6,2.88c5.76-5.76,19.44-34.56,20.16-37.44,5-17.28,5-34.56,4.32-51.84-1.44,1.44-3.6,2.16-5,2.88l5-4.32-8.64,5c4.32-1.44-9.36,9.36-11.52,10.8l-21.6,14.4c-14.4,10.08-30.24,20.88-41,35.28-6.48,9.36-25.2,38.88-6.48,44.64C4096.38,2773.79,4107.9,2771.63,4118,2769.47Zm95.76-15.12c-20.88,29.52-57.6,46.8-92.88,49a154.53,154.53,0,0,0,56.16-12.24C4195.74,2782.43,4205.82,2770.19,4213.74,2754.35Zm11.52-187.92a174,174,0,0,1,4.32,20.16C4228.14,2582.27,4226.7,2574.35,4225.26,2566.43Zm13,91.44c0,1.44,0,2.88.72,3.6C4238.94,2660.75,4238.22,2659.31,4238.22,2657.87Z" transform="translate(-924.74 -996.22)"/></g></svg>