<?xml version="1.0" encoding="utf-8"?>
<!-- Generator: Adobe Illustrator 24.0.0, SVG Export Plug-In . SVG Version: 6.00 Build 0)  -->
<svg version="1.1" id="Layer_1" xmlns="http://www.w3.org/2000/svg" xmlns:xlink="http://www.w3.org/1999/xlink" x="0px" y="0px"
	 viewBox="0 0 4497 3000" style="enable-background:new 0 0 4497 3000;" xml:space="preserve">
<style type="text/css">
	.st0{display:none;}
	.st1{display:inline;fill:none;stroke:#999999;stroke-width:5;stroke-miterlimit:10;}
	.st2{fill:url(#SVGID_1_);}
	.st3{fill:url(#SVGID_2_);}
	.st4{opacity:0.1;enable-background:new    ;}
	.st5{fill:#FFFFFF;}
	.st6{font-family:'Hollanda';}
	.st7{font-size:683.363px;}
	.st8{font-size:221.3874px;}
</style>
<g id="Layer_1_1_" class="st0">
	<rect x="3103.4" y="1872.8" class="st1" width="368" height="368"/>
</g>
<g id="Layer_3">
	<g>
		
			<linearGradient id="SVGID_1_" gradientUnits="userSpaceOnUse" x1="10330.2988" y1="-1947.7" x2="10330.2988" y2="518" gradientTransform="matrix(-1 0 0 1 12457.8066 2000)">
			<stop  offset="0" style="stop-color:#FAAF40"/>
			<stop  offset="0.1778" style="stop-color:#FAAC3C"/>
			<stop  offset="0.3471" style="stop-color:#F8A231"/>
			<stop  offset="0.51" style="stop-color:#F6921E"/>
			<stop  offset="0.83" style="stop-color:#F05A28"/>
			<stop  offset="0.9347" style="stop-color:#ED3125"/>
			<stop  offset="1" style="stop-color:#EC1C24"/>
		</linearGradient>
		<path class="st2" d="M2335.9,52.3c0,0,464.8,293.6,130.9,780.8c-333.8,487.3-484.4,546-477.9,821.9
			c6.6,275.9,294.6,669.3,242.2,863c0,0-91.6-340.5-281.5-522.5c-189.8-182-425.5-387.5-170.2-710.4c0,0-39.3,146.8-19.6,205.5
			c0,0-6.6-205.5,438.6-522.5C2643.6,651.2,2512.6,310.7,2335.9,52.3z"/>
		
			<linearGradient id="SVGID_2_" gradientUnits="userSpaceOnUse" x1="10006.3945" y1="-1131.8" x2="10006.3945" y2="170" gradientTransform="matrix(-1 0 0 1 12457.8066 2000)">
			<stop  offset="0" style="stop-color:#FAAF40"/>
			<stop  offset="0.1778" style="stop-color:#FAAC3C"/>
			<stop  offset="0.3471" style="stop-color:#F8A231"/>
			<stop  offset="0.51" style="stop-color:#F6921E"/>
			<stop  offset="0.83" style="stop-color:#F05A28"/>
			<stop  offset="0.9347" style="stop-color:#ED3125"/>
			<stop  offset="1" style="stop-color:#EC1C24"/>
		</linearGradient>
		<path class="st3" d="M2353.3,1395.4c491.7-210.2,358.5-527.2,358.5-527.2c271.3,477.9-129.9,846.7-320.9,986.6
			c93.3-27.2,216.9-16,216.9-16c-218.6,57.9-364.5,331.2-364.5,331.2C2234.8,2044.7,1861.6,1605.6,2353.3,1395.4z"/>
		<path class="st4" d="M2243.4,2170c-1.7-25-18.1-62.7-39.1-108.4l0,0c169.4-180.7,403.6-222.8,403.6-222.8
			C2389.4,1896.6,2243.4,2170,2243.4,2170z"/>
		<path class="st4" d="M2201.1,2292.7c30,87.8,46.1,166.1,30.1,225.5c0,0-91.6-340.5-281.5-522.5c-51.9-49.8-107-101.4-154.7-156.6
			C2013.6,1924.5,2198,2286.6,2201.1,2292.7z"/>
	</g>
</g>
<g id="Font">
	<text transform="matrix(1 0 0 1 78.3193 2504.2725)" class="st5 st6 st7">Living Flames</text>
	<text transform="matrix(1 0 0 1 1853.1631 2903.7021)" class="st5 st6 st8">24 -7</text>
</g>
</svg>
